<svg xmlns="http://www.w3.org/2000/svg" width="920" height="520" viewBox="0 0 920 520" role="img">
<style>
text{font-family:Arial,Helvetica,sans-serif;fill:#1f2528} .title{font-size:22px;font-weight:700} .subtitle{font-size:12px;fill:#526066} .axis{stroke:#293134;stroke-width:1.2} .grid{stroke:#d8dee2;stroke-width:1} .label{font-size:12px} .small{font-size:11px;fill:#526066} .value{font-size:12px;font-weight:700}
</style>
<rect width="920" height="520" fill="#fbfcfd"/>
<text x="32" y="36" class="title">Class Count Distribution</text>
<text x="32" y="56" class="subtitle">Minimum, median, and maximum images per class</text>
<line x1="88" y1="428.0" x2="884" y2="428.0" class="grid"/>
<text x="78" y="432.0" text-anchor="end" class="small">0</text>
<line x1="88" y1="357.6" x2="884" y2="357.6" class="grid"/>
<text x="78" y="361.6" text-anchor="end" class="small">1,000</text>
<line x1="88" y1="287.2" x2="884" y2="287.2" class="grid"/>
<text x="78" y="291.2" text-anchor="end" class="small">2,000</text>
<line x1="88" y1="216.8" x2="884" y2="216.8" class="grid"/>
<text x="78" y="220.8" text-anchor="end" class="small">3,000</text>
<line x1="88" y1="146.4" x2="884" y2="146.4" class="grid"/>
<text x="78" y="150.4" text-anchor="end" class="small">4,000</text>
<line x1="88" y1="76.0" x2="884" y2="76.0" class="grid"/>
<text x="78" y="80.0" text-anchor="end" class="small">5,000</text>
<line x1="88" y1="76" x2="88" y2="428" class="axis"/>
<line x1="88" y1="428" x2="884" y2="428" class="axis"/>
<text x="22" y="252.0" transform="rotate(-90 22 252.0)" text-anchor="middle" class="small">images per class</text>
<text x="220.7" y="476" text-anchor="middle" class="label">EuroSAT</text>
<rect x="149.7" y="287.2" width="42.0" height="140.8" rx="4" fill="#c64f7a"/>
<text x="170.7" y="281.2" text-anchor="middle" class="value">2,000</text>
<rect x="199.7" y="234.4" width="42.0" height="193.6" rx="4" fill="#e0a43a"/>
<text x="220.7" y="228.4" text-anchor="middle" class="value">2,750</text>
<rect x="249.7" y="216.8" width="42.0" height="211.2" rx="4" fill="#3f7f5f"/>
<text x="270.7" y="210.8" text-anchor="middle" class="value">3,000</text>
<text x="486.0" y="476" text-anchor="middle" class="label">Flowers102</text>
<rect x="415.0" y="425.6" width="42.0" height="2.4" rx="4" fill="#c64f7a"/>
<text x="436.0" y="419.6" text-anchor="middle" class="value">34</text>
<rect x="465.0" y="423.9" width="42.0" height="4.1" rx="4" fill="#e0a43a"/>
<text x="486.0" y="417.9" text-anchor="middle" class="value">58.5</text>
<rect x="515.0" y="411.5" width="42.0" height="16.5" rx="4" fill="#3f7f5f"/>
<text x="536.0" y="405.5" text-anchor="middle" class="value">234</text>
<text x="751.3" y="476" text-anchor="middle" class="label">Stanford Cars</text>
<rect x="680.3" y="426.3" width="42.0" height="1.7" rx="4" fill="#c64f7a"/>
<text x="701.3" y="420.3" text-anchor="middle" class="value">24</text>
<rect x="730.3" y="425.0" width="42.0" height="3.0" rx="4" fill="#e0a43a"/>
<text x="751.3" y="419.0" text-anchor="middle" class="value">42</text>
<rect x="780.3" y="423.2" width="42.0" height="4.8" rx="4" fill="#3f7f5f"/>
<text x="801.3" y="417.2" text-anchor="middle" class="value">68</text>
<rect x="664" y="28" width="14" height="14" rx="3" fill="#c64f7a"/>
<text x="686" y="39" class="small">Min</text>
<rect x="664" y="50" width="14" height="14" rx="3" fill="#e0a43a"/>
<text x="686" y="61" class="small">Median</text>
<rect x="664" y="72" width="14" height="14" rx="3" fill="#3f7f5f"/>
<text x="686" y="83" class="small">Max</text>
</svg>
